<?xml version="1.0" standalone="no"?><!DOCTYPE svg PUBLIC "-//W3C//DTD SVG 1.1//EN" "http://www.w3.org/Graphics/SVG/1.1/DTD/svg11.dtd"><svg t="1606142572317" class="icon" viewBox="0 0 1024 1024" version="1.1" xmlns="http://www.w3.org/2000/svg" p-id="55541" xmlns:xlink="http://www.w3.org/1999/xlink" width="40" height="40"><defs><style type="text/css"></style></defs><path d="M241.423059 247.085176h355.930353c27.346824 0 41.080471 13.673412 41.08047 41.020236 0 27.407059-13.733647 41.080471-41.08047 41.08047h-355.990588c-27.346824 0-41.020235-13.673412-41.020236-41.08047 0-27.346824 13.673412-41.020235 41.080471-41.020236z m0 164.261648H433.091765a41.080471 41.080471 0 0 1 0 82.100705H241.423059a41.080471 41.080471 0 0 1 0-82.100705z m552.297412 462.787764v108.062118a41.080471 41.080471 0 0 1-82.160942 0v-110.832941a138.24 138.24 0 0 1-14.155294-5.842824l-78.305882 78.305883a41.080471 41.080471 0 1 1-58.187294-58.006589l76.016941-76.016941a138.541176 138.541176 0 0 1-8.192-16.50447H522.661647a41.080471 41.080471 0 0 1 0-82.160942h98.364235c2.590118-12.167529 6.746353-23.732706 12.227765-34.514823l-70.174118-60.235294a38.068706 38.068706 0 0 1-2.16847-55.898353 44.333176 44.333176 0 0 1 60.235294-2.228706l69.330823 59.51247c6.746353-3.614118 13.733647-6.806588 21.082353-9.276235V522.24a41.080471 41.080471 0 0 1 82.160942 0v83.365647c11.806118 3.312941 23.009882 8.011294 33.370353 14.034824l59.151058-59.151059a41.080471 41.080471 0 1 1 58.066824 58.127059l-61.500235 61.44c4.638118 9.818353 8.192 20.239059 10.480941 31.081411h89.268706a41.080471 41.080471 0 1 1 0 82.160942h-96.918589c-3.252706 7.770353-7.107765 15.179294-11.685647 22.166588l70.354824 70.354823a41.080471 41.080471 0 1 1-58.066824 58.066824l-75.535058-75.595294a137.938824 137.938824 0 0 1-16.986353 5.842823z m-36.562824-54.272a79.932235 79.932235 0 1 0 0-159.924706 79.932235 79.932235 0 0 0 0 159.924706z" p-id="55542" fill="#515151"></path><path d="M322.439529 876.784941a41.080471 41.080471 0 1 1 0 82.160941H159.262118a150.588235 150.588235 0 0 1-150.588236-150.588235V151.190588a150.588235 150.588235 0 0 1 150.588236-150.588235h547.599058a150.588235 150.588235 0 0 1 150.588236 150.588235v185.886118a41.080471 41.080471 0 1 1-82.160941 0V151.250824c0-37.827765-30.659765-68.487529-68.427295-68.48753h-547.538823c-37.827765 0-68.487529 30.72-68.487529 68.48753V808.357647c0 37.767529 30.659765 68.427294 68.427294 68.427294h163.237647z" p-id="55543" fill="#515151"></path></svg>