<?xml version="1.0" standalone="no"?><!DOCTYPE svg PUBLIC "-//W3C//DTD SVG 1.1//EN" "http://www.w3.org/Graphics/SVG/1.1/DTD/svg11.dtd"><svg t="1626264959049" class="icon" viewBox="0 0 1024 1024" version="1.1" xmlns="http://www.w3.org/2000/svg" p-id="1602" width="40" height="40" xmlns:xlink="http://www.w3.org/1999/xlink"><defs><style type="text/css"></style></defs><path d="M0 0h1024v1024H0z" fill="#515151" fill-opacity=".01" p-id="1603"></path><path d="M728.283429 597.138286l6.436571 0.950857c19.017143 4.242286 32.256 22.235429 30.866286 41.984l-0.950857 6.363428-74.313143 334.262858a40.228571 40.228571 0 0 1-79.286857-11.629715l0.950857-6.363428 74.313143-334.262857a40.228571 40.228571 0 0 1 36.205714-31.305143h5.851428zM585.142857 73.142857v263.314286c0 16.091429 13.165714 29.257143 29.257143 29.257143H877.714286v148.48H716.580571l0.073143 0.438857h-1.682285l-6.363429 0.292571c-51.492571 6.802286-88.502857 40.374857-98.523429 85.504l-3.803428 16.969143-4.900572-4.900571-9.874285-8.630857-5.266286-4.022858a109.714286 109.714286 0 0 0-140.068571 12.653715L330.020571 728.649143l-8.630857 9.947428c-34.011429 48.566857-29.037714 107.52 8.630857 145.261715l66.998858 66.998857H182.857143a36.571429 36.571429 0 0 1-36.571429-36.571429v-804.571428a36.571429 36.571429 0 0 1 36.571429-36.571429H585.142857zM495.396571 677.083429a40.228571 40.228571 0 0 1 61.001143 51.858285l-4.608 5.412572-66.779428 66.706285v10.386286l67.145143 67.145143a40.228571 40.228571 0 0 1-51.785143 61.074286l-5.412572-4.681143-108.032-108.032a29.257143 29.257143 0 0 1-3.437714-37.302857l3.876571-4.534857z m326.656 0a40.228571 40.228571 0 0 1 56.832 0l108.470858 108.470857a29.257143 29.257143 0 0 1 0 41.398857l-108.470858 108.470857a40.228571 40.228571 0 0 1-56.832-56.832l67.145143-67.145143v-10.386286l-67.145143-67.145142a40.228571 40.228571 0 0 1 0-56.832zM402.285714 512h-146.285714a36.571429 36.571429 0 0 0 0 73.142857h146.285714a36.571429 36.571429 0 0 0 0-73.142857z m-73.142857-219.428571h-73.142857a36.571429 36.571429 0 0 0 0 73.142857h73.142857a36.571429 36.571429 0 0 0 0-73.142857zM658.285714 73.142857l219.428572 219.428572H694.857143a36.571429 36.571429 0 0 1-36.571429-36.571429V73.142857z" fill="#515151" p-id="1604"></path></svg>