<?xml version="1.0" standalone="no"?><!DOCTYPE svg PUBLIC "-//W3C//DTD SVG 1.1//EN" "http://www.w3.org/Graphics/SVG/1.1/DTD/svg11.dtd"><svg t="1606138400355" class="icon" viewBox="0 0 1024 1024" version="1.1" xmlns="http://www.w3.org/2000/svg" p-id="12890" xmlns:xlink="http://www.w3.org/1999/xlink" width="40" height="40"><defs><style type="text/css"></style></defs><path d="M592.244364 710.516364a10.379636 10.379636 0 0 0-14.615273 0l-150.388364 150.341818c-69.632 69.678545-187.112727 77.032727-264.005818 0-76.986182-76.986182-69.632-194.327273 0-263.959273l150.341818-150.341818a10.379636 10.379636 0 0 0 0-14.661818L262.144 380.369455a10.379636 10.379636 0 0 0-14.615273 0l-150.341818 150.388363a279.738182 279.738182 0 0 0 0 396.008727 279.877818 279.877818 0 0 0 395.962182 0l150.341818-150.341818a10.379636 10.379636 0 0 0 0-14.661818l-51.2-51.246545z m334.661818-613.422546a279.738182 279.738182 0 0 0-396.008727 0L380.369455 247.482182a10.379636 10.379636 0 0 0 0 14.615273l51.386181 51.386181a10.379636 10.379636 0 0 0 14.615273 0l150.388364-150.341818c69.632-69.678545 187.112727-77.032727 264.005818 0 76.986182 76.986182 69.632 194.327273 0 263.959273l-150.341818 150.341818a10.379636 10.379636 0 0 0 0 14.661818l51.479272 51.525818a10.379636 10.379636 0 0 0 14.615273 0l150.341818-150.388363a280.203636 280.203636 0 0 0 0-396.101818z m-287.930182 234.123637a10.379636 10.379636 0 0 0-14.661818 0L331.217455 624.174545a10.379636 10.379636 0 0 0 0 14.615273l51.2 51.2a10.379636 10.379636 0 0 0 14.661818 0l293.003636-292.957091a10.379636 10.379636 0 0 0 0-14.615272l-51.106909-51.246546z" fill="#515151" p-id="12891"></path></svg>