<?xml version="1.0" standalone="no"?><!DOCTYPE svg PUBLIC "-//W3C//DTD SVG 1.1//EN" "http://www.w3.org/Graphics/SVG/1.1/DTD/svg11.dtd"><svg t="1606446531777" class="icon" viewBox="0 0 1024 1024" version="1.1" xmlns="http://www.w3.org/2000/svg" p-id="1807" width="40" height="40" xmlns:xlink="http://www.w3.org/1999/xlink"><defs><style type="text/css"></style></defs><path d="M423.9 487H221.7c-34.9 0-63.4-28.4-63.4-63.4V221.5c0-34.9 28.4-63.4 63.4-63.4h202.2c34.9 0 63.4 28.4 63.4 63.4v202.2c-0.1 34.9-28.5 63.3-63.4 63.3z m0-63.3v31.7-31.7zM221.7 221.5v202.2h202.1l0.1-202.2H221.7zM803.1 487H600.9c-34.9 0-63.4-28.4-63.4-63.4V221.5c0-34.9 28.4-63.4 63.4-63.4h202.2c34.9 0 63.4 28.4 63.4 63.4v202.2c0 34.9-28.5 63.3-63.4 63.3z m0-63.3v31.7-31.7zM600.9 221.5v202.2H803l0.1-202.2H600.9zM423.9 865.8H221.7c-34.9 0-63.4-28.4-63.4-63.4V600.3c0-34.9 28.4-63.4 63.4-63.4h202.2c34.9 0 63.4 28.4 63.4 63.4v202.2c-0.1 34.9-28.5 63.3-63.4 63.3z m0-63.3v31.7-31.7zM221.7 600.3v202.2h202.1l0.1-202.2H221.7zM736.9 865.8h-69.7c-71.4 0-129.6-58.1-129.6-129.6v-69.7c0-71.4 58.1-129.6 129.6-129.6h69.7c71.4 0 129.6 58.1 129.6 129.6v69.7c0 71.5-58.2 129.6-129.6 129.6z m-69.8-265.5c-36.5 0-66.2 29.7-66.2 66.2v69.7c0 36.5 29.7 66.2 66.2 66.2h69.7c36.5 0 66.2-29.7 66.2-66.2v-69.7c0-36.5-29.7-66.2-66.2-66.2h-69.7z" fill="#515151" p-id="1808"></path></svg>