<?xml version="1.0" standalone="no"?><!DOCTYPE svg PUBLIC "-//W3C//DTD SVG 1.1//EN" "http://www.w3.org/Graphics/SVG/1.1/DTD/svg11.dtd"><svg t="1606493764243" class="icon" viewBox="0 0 1024 1024" version="1.1" xmlns="http://www.w3.org/2000/svg" p-id="2300" width="40" height="40" xmlns:xlink="http://www.w3.org/1999/xlink"><defs><style type="text/css"></style></defs><path d="M219.4 767.5h-60.7c-20.8 0-37.7-16.9-37.7-37.7V165.6c0-20.8 16.9-37.7 37.7-37.7h60.7c20.8 0 37.7 16.9 37.7 37.7v564.2c-0.1 20.8-17 37.7-37.7 37.7zM545.1 767.5h-39.2c-20.8 0-37.7-16.9-37.7-37.7V165.6c0-20.8 16.9-37.7 37.7-37.7h39.2c20.8 0 37.7 16.9 37.7 37.7v564.2c-0.1 20.8-16.9 37.7-37.7 37.7zM731.4 767.5h-75.3c-20.8 0-37.7-16.9-37.7-37.7V165.6c0-20.8 16.9-37.7 37.7-37.7h75.3c20.8 0 37.7 16.9 37.7 37.7v564.2c-0.1 20.8-17 37.7-37.7 37.7zM360.9 767.5h-7.3c-20.8 0-37.7-16.9-37.7-37.7V165.6c0-20.8 16.9-37.7 37.7-37.7h7.3c20.8 0 37.7 16.9 37.7 37.7v564.2c-0.1 20.8-16.9 37.7-37.7 37.7zM865.6 767.5h-7.3c-20.8 0-37.7-16.9-37.7-37.7V165.6c0-20.8 16.9-37.7 37.7-37.7h7.3c20.8 0 37.7 16.9 37.7 37.7v564.2c-0.1 20.8-16.9 37.7-37.7 37.7zM865.6 895.6h-707c-20.8 0-37.7-16.9-37.7-37.7v-0.2c0-20.8 16.9-37.7 37.7-37.7h707c20.8 0 37.7 16.9 37.7 37.7v0.2c-0.1 20.9-16.9 37.7-37.7 37.7z" p-id="2301" fill="#515151"></path></svg>